HIERARCHY
ROOT Hips
{
	OFFSET -0.001795 -0.223333 0.028219
	CHANNELS 6 Xposition Yposition Zposition Zrotation Yrotation Xrotation 
	JOINT LeftUpLeg
	{
		OFFSET 0.069520 -0.091406 -0.006815
		CHANNELS 3 Zrotation Yrotation Xrotation
		JOINT LeftLeg
		{
			OFFSET 0.034277 -0.375199 -0.004496
			CHANNELS 3 Zrotation Yrotation Xrotation
			JOINT LeftFoot
			{
				OFFSET -0.013596 -0.397961 -0.043693
				CHANNELS 3 Zrotation Yrotation Xrotation
				JOINT LeftToe
				{
					OFFSET 0.026358 -0.055791 0.119288
					CHANNELS 3 Zrotation Yrotation Xrotation
					End Site
					{
						OFFSET 0.000000 0.000000 0.000000
					}
				}
			}
		}
	}
	JOINT RightUpLeg
	{
		OFFSET -0.067670 -0.090522 -0.004320
		CHANNELS 3 Zrotation Yrotation Xrotation
		JOINT RightLeg
		{
			OFFSET -0.038290 -0.382569 -0.008850
			CHANNELS 3 Zrotation Yrotation Xrotation
			JOINT RightFoot
			{
				OFFSET 0.015774 -0.398415 -0.042312
				CHANNELS 3 Zrotation Yrotation Xrotation
				JOINT RightToe
				{
					OFFSET -0.025372 -0.048144 0.123348
					CHANNELS 3 Zrotation Yrotation Xrotation
					End Site
					{
						OFFSET 0.000000 0.000000 0.000000
					}
				}
			}
		}
	}
	JOINT Spine
	{
		OFFSET -0.002533 0.108963 -0.026696
		CHANNELS 3 Zrotation Yrotation Xrotation
		JOINT Spine1
		{
			OFFSET 0.005487 0.135180 0.001092
			CHANNELS 3 Zrotation Yrotation Xrotation
			JOINT Spine2
			{
				OFFSET 0.001457 0.052922 0.025425
				CHANNELS 3 Zrotation Yrotation Xrotation
				JOINT Neck
				{
					OFFSET -0.002778 0.213870 -0.042857
					CHANNELS 3 Zrotation Yrotation Xrotation
					JOINT Head
					{
						OFFSET 0.005152 0.064970 0.051349
						CHANNELS 3 Zrotation Yrotation Xrotation
						End Site
						{
							OFFSET 0.000000 0.000000 0.000000
						}
					}
				}
				JOINT LeftShoulder
				{
					OFFSET 0.078845 0.121749 -0.034090
					CHANNELS 3 Zrotation Yrotation Xrotation
					JOINT LeftArm
					{
						OFFSET 0.090977 0.030469 -0.008868
						CHANNELS 3 Zrotation Yrotation Xrotation
						JOINT LeftForeArm
						{
							OFFSET 0.259612 -0.012772 -0.027456
							CHANNELS 3 Zrotation Yrotation Xrotation
							JOINT LeftHand
							{
								OFFSET 0.249234 0.008986 -0.001171
								CHANNELS 3 Zrotation Yrotation Xrotation
								End Site
								{
									OFFSET 0.000000 0.000000 0.000000
								}
							}
						}
					}
				}
				JOINT RightShoulder
				{
					OFFSET -0.081759 0.118833 -0.038615
					CHANNELS 3 Zrotation Yrotation Xrotation
					JOINT RightArm
					{
						OFFSET -0.096012 0.032551 -0.009143
						CHANNELS 3 Zrotation Yrotation Xrotation
						JOINT RightForeArm
						{
							OFFSET -0.253742 -0.013329 -0.021401
							CHANNELS 3 Zrotation Yrotation Xrotation
							JOINT RightHand
							{
								OFFSET -0.255298 0.007772 -0.005559
								CHANNELS 3 Zrotation Yrotation Xrotation
								End Site
								{
									OFFSET 0.000000 0.000000 0.000000
								}
							}
						}
					}
				}
			}
		}
	}
}
MOTION
Frames: 15
Frame Time: 0.050000
0.000000 0.935950 0.000000 0.498784 -4.649452 4.925327 1.570166 -1.343294 -18.500787 -5.701946 1.235023 19.160383 6.597033 14.770202 11.609932 0.000000 0.000000 0.000000 0.094932 0.693637 -6.964865 -0.105333 0.328100 6.986125 -6.808880 -15.595104 -5.433444 0.000000 0.000000 0.000000 4.873425 -0.682739 6.962407 -2.388751 1.068974 -6.036776 -1.582368 5.108029 10.623399 7.249059 -3.293111 -15.015698 0.000000 0.000000 0.000000 -15.164601 -2.234889 -0.707366 -57.198760 -15.657367 0.147638 -6.335124 -27.907622 2.616542 0.000000 0.000000 0.000000 11.627087 -4.115470 -2.464369 56.306140 10.663593 -0.967836 7.144051 32.066555 3.436724 0.000000 0.000000 0.000000 
0.000125 0.934838 0.000898 0.029986 -4.118172 5.965096 2.098870 -1.349741 -19.638602 -5.785572 1.270605 20.356860 6.046566 13.658901 8.551574 0.000000 0.000000 0.000000 0.256773 0.739179 -7.367352 0.577660 0.172533 5.913298 -6.902941 -15.981350 -5.296935 0.000000 0.000000 0.000000 5.887625 -0.799541 7.028182 -1.905824 0.877521 -5.312146 -2.743727 5.652730 9.674355 7.755955 -3.572582 -14.459072 0.000000 0.000000 0.000000 -15.079276 -2.616197 -0.757857 -57.690090 -16.129839 0.502248 -5.639207 -28.188759 2.380434 0.000000 0.000000 0.000000 11.038867 -4.793194 -2.607703 57.657070 10.441111 -0.868920 6.926858 32.774698 3.558058 0.000000 0.000000 0.000000 
0.000691 0.935161 0.003745 0.513121 -5.296756 5.722492 1.058615 -1.446230 -19.159461 -5.113331 1.144030 20.410321 6.596891 14.543504 8.966795 0.000000 0.000000 0.000000 -0.429993 0.767758 -7.793979 0.537969 0.242622 7.215702 -6.674857 -15.074629 -5.812709 0.000000 0.000000 0.000000 5.809302 -0.865943 8.042773 -2.713940 1.181608 -6.711862 -2.384728 5.429383 10.975156 7.405242 -3.699124 -13.164485 0.000000 0.000000 0.000000 -15.253117 -3.220773 -0.231463 -57.497567 -17.011409 0.801549 -4.576762 -27.391671 2.148438 0.000000 0.000000 0.000000 11.963697 -4.203848 -2.523675 56.582958 10.967113 -0.850482 7.791006 33.790462 3.869085 0.000000 0.000000 0.000000 
0.001708 0.934505 0.008758 0.230479 -6.023708 6.329547 0.973445 -1.438950 -19.199873 -4.683230 1.046155 20.091053 7.022374 15.196439 8.583153 0.000000 0.000000 0.000000 -0.379361 0.889709 -8.964649 0.671972 0.292158 8.615150 -6.584645 -14.626779 -6.267040 0.000000 0.000000 0.000000 5.676356 -0.863600 8.087748 -2.416964 1.054180 -6.363123 -2.156215 5.512767 10.449448 7.328092 -3.711419 -12.825724 0.000000 0.000000 0.000000 -14.457866 -2.219401 -0.598306 -59.570831 -18.693775 1.839338 -3.510639 -25.893417 1.802223 0.000000 0.000000 0.000000 10.641800 -4.867971 -2.762813 57.111290 11.504837 -0.474394 8.327420 34.520195 4.083916 0.000000 0.000000 0.000000 
0.003172 0.933554 0.015912 0.137927 -7.694309 6.189970 -0.012944 -1.476886 -18.227985 -3.333830 0.727089 19.825126 7.940864 16.649401 8.265732 0.000000 0.000000 0.000000 -0.607822 0.917078 -9.273460 0.651821 0.384492 9.989842 -6.272526 -13.238686 -7.051973 0.000000 0.000000 0.000000 5.378963 -0.855080 8.559538 -2.312979 0.983326 -6.643818 -1.881590 5.387352 11.070455 7.285269 -3.664120 -13.673317 0.000000 0.000000 0.000000 -13.155417 -2.232558 -0.247054 -60.676547 -19.384586 2.242222 -2.981010 -25.652845 1.743465 0.000000 0.000000 0.000000 10.529775 -4.745510 -2.820910 57.268633 11.968597 -0.363465 9.068719 36.656593 4.519017 0.000000 0.000000 0.000000 
0.004826 0.932110 0.025096 -0.028636 -8.628338 6.160825 -0.415157 -1.453319 -17.354316 -2.844029 0.626846 19.629942 8.496259 17.569219 7.633933 0.000000 0.000000 0.000000 -0.747155 0.998766 -10.079724 0.724117 0.520824 12.413703 -6.249609 -12.730390 -7.910937 0.000000 0.000000 0.000000 5.324317 -0.840453 8.539551 -2.245579 0.942304 -6.601009 -1.968039 4.830364 11.468792 7.048859 -3.753654 -12.836031 0.000000 0.000000 0.000000 -12.072520 -2.601057 0.201482 -61.738231 -20.390985 2.900835 -1.332317 -24.510871 1.372318 0.000000 0.000000 0.000000 10.542159 -4.411866 -2.798056 57.925394 11.952628 -0.449815 9.166223 38.533780 4.707297 0.000000 0.000000 0.000000 
0.006286 0.930767 0.034900 -0.244947 -9.470315 6.075423 -0.559971 -1.394493 -16.476041 -2.703777 0.635076 19.584712 8.980866 18.401987 7.089847 0.000000 0.000000 0.000000 -1.358346 1.166580 -11.874356 1.798892 0.567308 16.712197 -6.314951 -12.557647 -8.685304 0.000000 0.000000 0.000000 5.199551 -0.834600 8.744806 -2.069779 0.859541 -6.480452 -1.971952 3.950272 11.614899 6.866685 -3.807629 -12.563194 0.000000 0.000000 0.000000 -11.749521 -3.139007 0.695589 -61.678350 -21.156240 3.390965 -1.065709 -24.274057 1.366347 0.000000 0.000000 0.000000 11.020078 -4.001665 -2.848965 58.400132 11.288214 -0.859727 10.447934 39.372844 5.090992 0.000000 0.000000 0.000000 
0.007199 0.929158 0.043874 -0.523453 -10.229828 5.940490 -0.232651 -1.312054 -16.109214 -3.159881 0.859518 20.406554 9.394836 19.119031 6.800112 0.000000 0.000000 0.000000 -1.874122 1.369029 -14.003942 2.731443 0.665460 21.600114 -6.231451 -12.124726 -9.109787 0.000000 0.000000 0.000000 5.241426 -0.848017 9.008450 -1.972994 0.810398 -6.414095 -2.156548 3.241120 12.249746 6.723244 -3.826288 -12.666616 0.000000 0.000000 0.000000 -10.834852 -4.177094 1.392043 -61.395141 -22.371368 4.067356 -0.390770 -25.047216 1.327413 0.000000 0.000000 0.000000 11.718163 -3.272405 -2.764110 59.250791 11.104361 -1.069431 10.569473 38.755942 4.913431 0.000000 0.000000 0.000000 
0.007202 0.927701 0.051168 -0.875245 -10.281220 5.797813 0.273580 -1.226913 -15.835076 -3.539141 1.023965 21.181580 9.463438 19.272909 6.335915 0.000000 0.000000 0.000000 -2.158161 1.563141 -15.996519 3.569001 0.686648 25.780630 -6.138269 -12.228200 -8.512288 0.000000 0.000000 0.000000 5.344675 -0.885350 9.433173 -1.995195 0.823342 -6.091943 -2.012451 2.545402 12.082767 6.558721 -3.791020 -12.596317 0.000000 0.000000 0.000000 -10.520209 -5.084513 1.915851 -60.965134 -23.695114 4.826114 0.564638 -25.880932 1.195267 0.000000 0.000000 0.000000 11.856643 -2.912780 -2.729276 60.211341 10.580735 -1.357577 10.861706 37.237987 4.695929 0.000000 0.000000 0.000000 
0.006224 0.927532 0.057026 -1.176651 -10.349873 6.054621 0.616888 -1.186664 -15.962561 -3.577480 1.069049 21.704004 9.517495 19.360516 6.406133 0.000000 0.000000 0.000000 -2.168855 1.833051 -18.400514 3.487078 0.883653 28.308298 -5.709016 -12.261523 -5.543772 0.000000 0.000000 0.000000 5.530691 -0.914553 9.515120 -1.817562 0.745603 -6.384703 -2.140035 1.966045 12.765592 6.372037 -3.589852 -13.811573 0.000000 0.000000 0.000000 -9.989426 -5.230343 2.086896 -60.800587 -25.113492 5.607278 1.132631 -27.784571 1.221127 0.000000 0.000000 0.000000 11.901165 -2.357752 -2.570190 61.185704 10.880407 -1.316566 10.282435 35.850384 4.272019 0.000000 0.000000 0.000000 
0.004330 0.928148 0.062262 -1.450937 -9.856839 6.019776 0.975017 -1.132766 -15.668469 -3.478437 1.010834 21.905332 9.280174 18.958095 6.423907 0.000000 0.000000 0.000000 -2.134669 1.947129 -19.461424 2.190009 1.229071 27.684396 -4.318524 -10.746837 -0.172157 0.000000 0.000000 0.000000 5.820937 -0.974541 9.853982 -1.580608 0.658474 -6.232091 -2.275436 1.578443 12.582567 6.252004 -3.492764 -13.975915 0.000000 0.000000 0.000000 -9.282917 -6.102357 2.471687 -60.907871 -26.248052 6.327842 1.609032 -29.376279 1.188098 0.000000 0.000000 0.000000 11.673678 -2.073635 -2.419123 62.741688 11.539554 -0.968082 8.997269 33.414661 3.583336 0.000000 0.000000 0.000000 
0.001390 0.929069 0.067030 -1.590243 -9.273839 6.506282 1.241697 -1.103743 -15.547446 -3.313095 0.889392 21.314364 8.995072 18.484074 6.338752 0.000000 0.000000 0.000000 -1.938832 1.969701 -19.570995 -0.009040 1.699934 25.271944 -1.977707 -7.028478 4.101221 0.000000 0.000000 0.000000 6.043996 -1.004057 9.702334 -1.534162 0.647956 -6.191605 -2.388514 1.301566 12.426128 6.392633 -3.546181 -14.151796 0.000000 0.000000 0.000000 -8.548817 -6.433381 2.587449 -61.868341 -27.252833 7.160973 2.038187 -30.567721 1.132518 0.000000 0.000000 0.000000 10.933443 -1.732668 -2.148449 64.353584 12.442163 -0.457630 8.874650 32.534021 3.457526 0.000000 0.000000 0.000000 
-0.002443 0.929918 0.070823 -1.436790 -8.656602 6.687635 1.293116 -1.099886 -15.360206 -3.181825 0.791759 20.975014 8.675259 17.938472 6.452234 0.000000 0.000000 0.000000 -2.183476 1.828453 -18.689543 -1.654599 1.953586 23.014188 0.629137 -1.939540 5.718549 0.000000 0.000000 0.000000 6.083632 -1.006566 9.549108 -1.517901 0.650670 -6.190463 -2.544230 1.556960 12.438011 6.211334 -3.296454 -14.694374 0.000000 0.000000 0.000000 -7.736565 -6.954472 2.716726 -62.449444 -28.141694 7.779766 1.341248 -32.069299 1.360501 0.000000 0.000000 0.000000 10.215377 -0.965301 -1.618247 65.318672 14.071208 0.534508 8.465299 32.148352 3.369302 0.000000 0.000000 0.000000 
-0.006974 0.929493 0.072780 -1.332146 -8.205696 6.908737 1.523261 -1.099674 -15.696873 -3.174465 0.772332 21.328679 8.472699 17.595660 6.447221 0.000000 0.000000 0.000000 -2.230097 1.763804 -18.228471 -2.411943 2.080087 22.288171 1.863958 1.299229 5.048263 0.000000 0.000000 0.000000 6.048168 -1.054464 10.075494 -1.512321 0.654104 -6.334650 -2.831668 2.466559 12.229746 6.969894 -3.643825 -14.747854 0.000000 0.000000 0.000000 -6.077192 -7.741263 2.870646 -64.027689 -29.650945 8.975722 1.071322 -33.071605 1.395658 0.000000 0.000000 0.000000 9.272978 0.087950 -0.885144 66.403009 15.921315 1.814323 9.118633 32.408037 3.699168 0.000000 0.000000 0.000000 
-0.011908 0.929089 0.071537 -1.004692 -7.613853 7.147380 1.829464 -1.103269 -16.209575 -3.561156 0.861150 21.485546 8.160295 17.064019 6.453108 0.000000 0.000000 0.000000 -2.202404 1.723083 -17.942199 -2.462669 1.974621 21.418665 1.478857 0.901873 4.302973 0.000000 0.000000 0.000000 5.813008 -1.088200 10.697103 -1.741699 0.754503 -6.452045 -2.848930 3.343088 12.572390 7.302957 -3.668183 -15.240330 0.000000 0.000000 0.000000 -5.090781 -8.543959 3.070720 -65.115428 -31.299782 10.082494 0.035111 -34.041174 1.674259 0.000000 0.000000 0.000000 8.584212 1.786297 0.071140 67.065829 18.823404 3.743393 9.201033 33.528460 4.005883 0.000000 0.000000 0.000000 
